<?xml version="1.0" encoding="UTF-8" standalone="no"?>
<svg
   xmlns:dc="http://purl.org/dc/elements/1.1/"
   xmlns:cc="http://creativecommons.org/ns#"
   xmlns:rdf="http://www.w3.org/1999/02/22-rdf-syntax-ns#"
   xmlns:svg="http://www.w3.org/2000/svg"
   xmlns="http://www.w3.org/2000/svg"
   width="34.283783mm"
   height="34.283298mm"
   viewBox="0 0 34.283783 34.283298"
   version="1.1"
   id="svg8">
  <defs
     id="defs2" />
  <metadata
     id="metadata5">
    <rdf:RDF>
      <cc:Work
         rdf:about="">
        <dc:format>image/svg+xml</dc:format>
        <dc:type
           rdf:resource="http://purl.org/dc/dcmitype/StillImage" />
        <dc:title></dc:title>
      </cc:Work>
    </rdf:RDF>
  </metadata>
  <g
     id="layer1"
     transform="translate(-1.1874536e-4,-0.00212647)">
    <g
       id="g850"
       transform="matrix(0.26458333,0,0,0.26458333,-53.285006,45.513113)">
      <path
         id="path844"
         d="M 321.37697,-172.01003 H 210.95594 c -5.27657,0 -9.56334,4.18238 -9.56334,9.33927 v 110.885339 c 0,5.16139 4.28677,9.35007 9.56334,9.35007 h 110.42103 c 5.28557,0 9.59213,-4.18868 9.59213,-9.35007 V -162.67076 c 0,-5.15689 -4.30656,-9.33927 -9.59213,-9.33927"
         style="fill:#000000" />
      <path
         id="path846"
         d="m 230.21667,-154.17102 c 6.1458,0 11.13803,4.99313 11.13803,11.13983 0,6.1512 -4.99223,11.14612 -11.13803,11.14612 -6.15839,0 -11.14432,-4.99492 -11.14432,-11.14612 0,-6.1467 4.98593,-11.13983 11.14432,-11.13983 z m -9.61282,30.7389 h 19.21845 v 61.836809 h -19.21845 z"
         style="fill:#ffffff" />
      <path
         id="path848"
         d="m 251.87634,-123.43212 h 18.4365 v 8.44844 h 0.25555 c 2.5645,-4.86084 8.83448,-9.98714 18.18365,-9.98714 19.4614,0 23.0544,12.80719 23.0544,29.456638 v 33.918871 h -19.20495 v -30.071222 c 0,-7.174299 -0.13228,-16.397497 -9.98715,-16.397497 -10.00155,0 -11.53305,7.81227 -11.53305,15.878298 v 30.590421 h -19.20495 v -61.836809"
         style="fill:#ffffff" />
    </g>
  </g>
</svg>
